G04 #@! TF.GenerationSoftware,KiCad,Pcbnew,(5.1.4)-1*
G04 #@! TF.CreationDate,2019-10-27T21:57:42-04:00*
G04 #@! TF.ProjectId,SplitSecondGame,53706c69-7453-4656-936f-6e6447616d65,A*
G04 #@! TF.SameCoordinates,Original*
G04 #@! TF.FileFunction,Legend,Top*
G04 #@! TF.FilePolarity,Positive*
%FSLAX46Y46*%
G04 Gerber Fmt 4.6, Leading zero omitted, Abs format (unit mm)*
G04 Created by KiCad (PCBNEW (5.1.4)-1) date 2019-10-27 21:57:42*
%MOMM*%
%LPD*%
G04 APERTURE LIST*
%ADD10C,0.120000*%
%ADD11C,0.150000*%
G04 APERTURE END LIST*
D10*
X72016252Y-75363000D02*
X71493748Y-75363000D01*
X72016252Y-76783000D02*
X71493748Y-76783000D01*
X72016252Y-77395000D02*
X71493748Y-77395000D01*
X72016252Y-78815000D02*
X71493748Y-78815000D01*
X53078748Y-74243000D02*
X53601252Y-74243000D01*
X53078748Y-72823000D02*
X53601252Y-72823000D01*
X43195000Y-77903000D02*
G75*
G03X48245000Y-77903000I2525000J0D01*
G01*
X43195000Y-71503000D02*
G75*
G02X48245000Y-71503000I2525000J0D01*
G01*
X43195000Y-71503000D02*
X43195000Y-77903000D01*
X48245000Y-71503000D02*
X48245000Y-77903000D01*
D11*
X87390000Y-36005000D02*
X87390000Y-33705000D01*
X87390000Y-42305000D02*
X87390000Y-40105000D01*
X82790000Y-42305000D02*
X82790000Y-33705000D01*
D10*
X72016252Y-71553000D02*
X71493748Y-71553000D01*
X72016252Y-72973000D02*
X71493748Y-72973000D01*
X71493748Y-74878000D02*
X72016252Y-74878000D01*
X71493748Y-73458000D02*
X72016252Y-73458000D01*
X71493748Y-71068000D02*
X72016252Y-71068000D01*
X71493748Y-69648000D02*
X72016252Y-69648000D01*
X84184000Y-75438000D02*
X84184000Y-76073000D01*
X84184000Y-76073000D02*
X83549000Y-76073000D01*
X53078748Y-78053000D02*
X53601252Y-78053000D01*
X53078748Y-76633000D02*
X53601252Y-76633000D01*
X53078748Y-76148000D02*
X53601252Y-76148000D01*
X53078748Y-74728000D02*
X53601252Y-74728000D01*
X60055000Y-116720000D02*
X64555000Y-116720000D01*
X58805000Y-112720000D02*
X58805000Y-114220000D01*
X64555000Y-110220000D02*
X60055000Y-110220000D01*
X65805000Y-114220000D02*
X65805000Y-112720000D01*
X77965000Y-102060000D02*
X77965000Y-100560000D01*
X76715000Y-98060000D02*
X72215000Y-98060000D01*
X70965000Y-100560000D02*
X70965000Y-102060000D01*
X72215000Y-104560000D02*
X76715000Y-104560000D01*
X53645000Y-102060000D02*
X53645000Y-100560000D01*
X52395000Y-98060000D02*
X47895000Y-98060000D01*
X46645000Y-100560000D02*
X46645000Y-102060000D01*
X47895000Y-104560000D02*
X52395000Y-104560000D01*
X65805000Y-89900000D02*
X65805000Y-88400000D01*
X64555000Y-85900000D02*
X60055000Y-85900000D01*
X58805000Y-88400000D02*
X58805000Y-89900000D01*
X60055000Y-92400000D02*
X64555000Y-92400000D01*
X53645000Y-89900000D02*
X53645000Y-88400000D01*
X52395000Y-85900000D02*
X47895000Y-85900000D01*
X46645000Y-88400000D02*
X46645000Y-89900000D01*
X47895000Y-92400000D02*
X52395000Y-92400000D01*
X77965000Y-89900000D02*
X77965000Y-88400000D01*
X76715000Y-85900000D02*
X72215000Y-85900000D01*
X70965000Y-88400000D02*
X70965000Y-89900000D01*
X72215000Y-92400000D02*
X76715000Y-92400000D01*
D11*
X58859000Y-70768000D02*
X57434000Y-70768000D01*
X66109000Y-70543000D02*
X65784000Y-70543000D01*
X66109000Y-77793000D02*
X65784000Y-77793000D01*
X58859000Y-77793000D02*
X59184000Y-77793000D01*
X58859000Y-70543000D02*
X59184000Y-70543000D01*
X58859000Y-77793000D02*
X58859000Y-77468000D01*
X66109000Y-77793000D02*
X66109000Y-77468000D01*
X66109000Y-70543000D02*
X66109000Y-70868000D01*
X58859000Y-70543000D02*
X58859000Y-70768000D01*
D10*
X53300000Y-60770000D02*
X53300000Y-60926000D01*
X53300000Y-58454000D02*
X53300000Y-58610000D01*
X55901130Y-60769837D02*
G75*
G02X53819039Y-60770000I-1041130J1079837D01*
G01*
X55901130Y-58610163D02*
G75*
G03X53819039Y-58610000I-1041130J-1079837D01*
G01*
X56532335Y-60768608D02*
G75*
G02X53300000Y-60925516I-1672335J1078608D01*
G01*
X56532335Y-58611392D02*
G75*
G03X53300000Y-58454484I-1672335J-1078608D01*
G01*
X60920000Y-60770000D02*
X60920000Y-60926000D01*
X60920000Y-58454000D02*
X60920000Y-58610000D01*
X63521130Y-60769837D02*
G75*
G02X61439039Y-60770000I-1041130J1079837D01*
G01*
X63521130Y-58610163D02*
G75*
G03X61439039Y-58610000I-1041130J-1079837D01*
G01*
X64152335Y-60768608D02*
G75*
G02X60920000Y-60925516I-1672335J1078608D01*
G01*
X64152335Y-58611392D02*
G75*
G03X60920000Y-58454484I-1672335J-1078608D01*
G01*
X68540000Y-60770000D02*
X68540000Y-60926000D01*
X68540000Y-58454000D02*
X68540000Y-58610000D01*
X71141130Y-60769837D02*
G75*
G02X69059039Y-60770000I-1041130J1079837D01*
G01*
X71141130Y-58610163D02*
G75*
G03X69059039Y-58610000I-1041130J-1079837D01*
G01*
X71772335Y-60768608D02*
G75*
G02X68540000Y-60925516I-1672335J1078608D01*
G01*
X71772335Y-58611392D02*
G75*
G03X68540000Y-58454484I-1672335J-1078608D01*
G01*
X53300000Y-53150000D02*
X53300000Y-53306000D01*
X53300000Y-50834000D02*
X53300000Y-50990000D01*
X55901130Y-53149837D02*
G75*
G02X53819039Y-53150000I-1041130J1079837D01*
G01*
X55901130Y-50990163D02*
G75*
G03X53819039Y-50990000I-1041130J-1079837D01*
G01*
X56532335Y-53148608D02*
G75*
G02X53300000Y-53305516I-1672335J1078608D01*
G01*
X56532335Y-50991392D02*
G75*
G03X53300000Y-50834484I-1672335J-1078608D01*
G01*
X60920000Y-53150000D02*
X60920000Y-53306000D01*
X60920000Y-50834000D02*
X60920000Y-50990000D01*
X63521130Y-53149837D02*
G75*
G02X61439039Y-53150000I-1041130J1079837D01*
G01*
X63521130Y-50990163D02*
G75*
G03X61439039Y-50990000I-1041130J-1079837D01*
G01*
X64152335Y-53148608D02*
G75*
G02X60920000Y-53305516I-1672335J1078608D01*
G01*
X64152335Y-50991392D02*
G75*
G03X60920000Y-50834484I-1672335J-1078608D01*
G01*
X68540000Y-53150000D02*
X68540000Y-53306000D01*
X68540000Y-50834000D02*
X68540000Y-50990000D01*
X71141130Y-53149837D02*
G75*
G02X69059039Y-53150000I-1041130J1079837D01*
G01*
X71141130Y-50990163D02*
G75*
G03X69059039Y-50990000I-1041130J-1079837D01*
G01*
X71772335Y-53148608D02*
G75*
G02X68540000Y-53305516I-1672335J1078608D01*
G01*
X71772335Y-50991392D02*
G75*
G03X68540000Y-50834484I-1672335J-1078608D01*
G01*
X53300000Y-45530000D02*
X53300000Y-45686000D01*
X53300000Y-43214000D02*
X53300000Y-43370000D01*
X55901130Y-45529837D02*
G75*
G02X53819039Y-45530000I-1041130J1079837D01*
G01*
X55901130Y-43370163D02*
G75*
G03X53819039Y-43370000I-1041130J-1079837D01*
G01*
X56532335Y-45528608D02*
G75*
G02X53300000Y-45685516I-1672335J1078608D01*
G01*
X56532335Y-43371392D02*
G75*
G03X53300000Y-43214484I-1672335J-1078608D01*
G01*
X60920000Y-45530000D02*
X60920000Y-45686000D01*
X60920000Y-43214000D02*
X60920000Y-43370000D01*
X63521130Y-45529837D02*
G75*
G02X61439039Y-45530000I-1041130J1079837D01*
G01*
X63521130Y-43370163D02*
G75*
G03X61439039Y-43370000I-1041130J-1079837D01*
G01*
X64152335Y-45528608D02*
G75*
G02X60920000Y-45685516I-1672335J1078608D01*
G01*
X64152335Y-43371392D02*
G75*
G03X60920000Y-43214484I-1672335J-1078608D01*
G01*
X68540000Y-45530000D02*
X68540000Y-45686000D01*
X68540000Y-43214000D02*
X68540000Y-43370000D01*
X71141130Y-45529837D02*
G75*
G02X69059039Y-45530000I-1041130J1079837D01*
G01*
X71141130Y-43370163D02*
G75*
G03X69059039Y-43370000I-1041130J-1079837D01*
G01*
X71772335Y-45528608D02*
G75*
G02X68540000Y-45685516I-1672335J1078608D01*
G01*
X71772335Y-43371392D02*
G75*
G03X68540000Y-43214484I-1672335J-1078608D01*
G01*
X53300000Y-37910000D02*
X53300000Y-38066000D01*
X53300000Y-35594000D02*
X53300000Y-35750000D01*
X55901130Y-37909837D02*
G75*
G02X53819039Y-37910000I-1041130J1079837D01*
G01*
X55901130Y-35750163D02*
G75*
G03X53819039Y-35750000I-1041130J-1079837D01*
G01*
X56532335Y-37908608D02*
G75*
G02X53300000Y-38065516I-1672335J1078608D01*
G01*
X56532335Y-35751392D02*
G75*
G03X53300000Y-35594484I-1672335J-1078608D01*
G01*
X60920000Y-37910000D02*
X60920000Y-38066000D01*
X60920000Y-35594000D02*
X60920000Y-35750000D01*
X63521130Y-37909837D02*
G75*
G02X61439039Y-37910000I-1041130J1079837D01*
G01*
X63521130Y-35750163D02*
G75*
G03X61439039Y-35750000I-1041130J-1079837D01*
G01*
X64152335Y-37908608D02*
G75*
G02X60920000Y-38065516I-1672335J1078608D01*
G01*
X64152335Y-35751392D02*
G75*
G03X60920000Y-35594484I-1672335J-1078608D01*
G01*
X68540000Y-37910000D02*
X68540000Y-38066000D01*
X68540000Y-35594000D02*
X68540000Y-35750000D01*
X71141130Y-37909837D02*
G75*
G02X69059039Y-37910000I-1041130J1079837D01*
G01*
X71141130Y-35750163D02*
G75*
G03X69059039Y-35750000I-1041130J-1079837D01*
G01*
X71772335Y-37908608D02*
G75*
G02X68540000Y-38065516I-1672335J1078608D01*
G01*
X71772335Y-35751392D02*
G75*
G03X68540000Y-35594484I-1672335J-1078608D01*
G01*
X53300000Y-30290000D02*
X53300000Y-30446000D01*
X53300000Y-27974000D02*
X53300000Y-28130000D01*
X55901130Y-30289837D02*
G75*
G02X53819039Y-30290000I-1041130J1079837D01*
G01*
X55901130Y-28130163D02*
G75*
G03X53819039Y-28130000I-1041130J-1079837D01*
G01*
X56532335Y-30288608D02*
G75*
G02X53300000Y-30445516I-1672335J1078608D01*
G01*
X56532335Y-28131392D02*
G75*
G03X53300000Y-27974484I-1672335J-1078608D01*
G01*
X60920000Y-30290000D02*
X60920000Y-30446000D01*
X60920000Y-27974000D02*
X60920000Y-28130000D01*
X63521130Y-30289837D02*
G75*
G02X61439039Y-30290000I-1041130J1079837D01*
G01*
X63521130Y-28130163D02*
G75*
G03X61439039Y-28130000I-1041130J-1079837D01*
G01*
X64152335Y-30288608D02*
G75*
G02X60920000Y-30445516I-1672335J1078608D01*
G01*
X64152335Y-28131392D02*
G75*
G03X60920000Y-27974484I-1672335J-1078608D01*
G01*
X68540000Y-30290000D02*
X68540000Y-30446000D01*
X68540000Y-27974000D02*
X68540000Y-28130000D01*
X71141130Y-30289837D02*
G75*
G02X69059039Y-30290000I-1041130J1079837D01*
G01*
X71141130Y-28130163D02*
G75*
G03X69059039Y-28130000I-1041130J-1079837D01*
G01*
X71772335Y-30288608D02*
G75*
G02X68540000Y-30445516I-1672335J1078608D01*
G01*
X71772335Y-28131392D02*
G75*
G03X68540000Y-27974484I-1672335J-1078608D01*
G01*
X52420000Y-62440000D02*
X52420000Y-64560000D01*
X57420000Y-62440000D02*
X57420000Y-64560000D01*
X52300000Y-62440000D02*
X52300000Y-64560000D01*
X56860000Y-64560000D02*
X57420000Y-64560000D01*
X54670000Y-64560000D02*
X55401000Y-64560000D01*
X52300000Y-64560000D02*
X52510000Y-64560000D01*
X56860000Y-62440000D02*
X57420000Y-62440000D01*
X54670000Y-62440000D02*
X55401000Y-62440000D01*
X52300000Y-62440000D02*
X52510000Y-62440000D01*
X60040000Y-62440000D02*
X60040000Y-64560000D01*
X65040000Y-62440000D02*
X65040000Y-64560000D01*
X59920000Y-62440000D02*
X59920000Y-64560000D01*
X64480000Y-64560000D02*
X65040000Y-64560000D01*
X62290000Y-64560000D02*
X63021000Y-64560000D01*
X59920000Y-64560000D02*
X60130000Y-64560000D01*
X64480000Y-62440000D02*
X65040000Y-62440000D01*
X62290000Y-62440000D02*
X63021000Y-62440000D01*
X59920000Y-62440000D02*
X60130000Y-62440000D01*
X67660000Y-62440000D02*
X67660000Y-64560000D01*
X72660000Y-62440000D02*
X72660000Y-64560000D01*
X67540000Y-62440000D02*
X67540000Y-64560000D01*
X72100000Y-64560000D02*
X72660000Y-64560000D01*
X69910000Y-64560000D02*
X70641000Y-64560000D01*
X67540000Y-64560000D02*
X67750000Y-64560000D01*
X72100000Y-62440000D02*
X72660000Y-62440000D01*
X69910000Y-62440000D02*
X70641000Y-62440000D01*
X67540000Y-62440000D02*
X67750000Y-62440000D01*
X49990000Y-62130000D02*
X52110000Y-62130000D01*
X49990000Y-57130000D02*
X52110000Y-57130000D01*
X49990000Y-62250000D02*
X52110000Y-62250000D01*
X52110000Y-57690000D02*
X52110000Y-57130000D01*
X52110000Y-59880000D02*
X52110000Y-59149000D01*
X52110000Y-62250000D02*
X52110000Y-62040000D01*
X49990000Y-57690000D02*
X49990000Y-57130000D01*
X49990000Y-59880000D02*
X49990000Y-59149000D01*
X49990000Y-62250000D02*
X49990000Y-62040000D01*
X57610000Y-62130000D02*
X59730000Y-62130000D01*
X57610000Y-57130000D02*
X59730000Y-57130000D01*
X57610000Y-62250000D02*
X59730000Y-62250000D01*
X59730000Y-57690000D02*
X59730000Y-57130000D01*
X59730000Y-59880000D02*
X59730000Y-59149000D01*
X59730000Y-62250000D02*
X59730000Y-62040000D01*
X57610000Y-57690000D02*
X57610000Y-57130000D01*
X57610000Y-59880000D02*
X57610000Y-59149000D01*
X57610000Y-62250000D02*
X57610000Y-62040000D01*
X65230000Y-62130000D02*
X67350000Y-62130000D01*
X65230000Y-57130000D02*
X67350000Y-57130000D01*
X65230000Y-62250000D02*
X67350000Y-62250000D01*
X67350000Y-57690000D02*
X67350000Y-57130000D01*
X67350000Y-59880000D02*
X67350000Y-59149000D01*
X67350000Y-62250000D02*
X67350000Y-62040000D01*
X65230000Y-57690000D02*
X65230000Y-57130000D01*
X65230000Y-59880000D02*
X65230000Y-59149000D01*
X65230000Y-62250000D02*
X65230000Y-62040000D01*
X72850000Y-62130000D02*
X74970000Y-62130000D01*
X72850000Y-57130000D02*
X74970000Y-57130000D01*
X72850000Y-62250000D02*
X74970000Y-62250000D01*
X74970000Y-57690000D02*
X74970000Y-57130000D01*
X74970000Y-59880000D02*
X74970000Y-59149000D01*
X74970000Y-62250000D02*
X74970000Y-62040000D01*
X72850000Y-57690000D02*
X72850000Y-57130000D01*
X72850000Y-59880000D02*
X72850000Y-59149000D01*
X72850000Y-62250000D02*
X72850000Y-62040000D01*
X52420000Y-54820000D02*
X52420000Y-56940000D01*
X57420000Y-54820000D02*
X57420000Y-56940000D01*
X52300000Y-54820000D02*
X52300000Y-56940000D01*
X56860000Y-56940000D02*
X57420000Y-56940000D01*
X54670000Y-56940000D02*
X55401000Y-56940000D01*
X52300000Y-56940000D02*
X52510000Y-56940000D01*
X56860000Y-54820000D02*
X57420000Y-54820000D01*
X54670000Y-54820000D02*
X55401000Y-54820000D01*
X52300000Y-54820000D02*
X52510000Y-54820000D01*
X60040000Y-54820000D02*
X60040000Y-56940000D01*
X65040000Y-54820000D02*
X65040000Y-56940000D01*
X59920000Y-54820000D02*
X59920000Y-56940000D01*
X64480000Y-56940000D02*
X65040000Y-56940000D01*
X62290000Y-56940000D02*
X63021000Y-56940000D01*
X59920000Y-56940000D02*
X60130000Y-56940000D01*
X64480000Y-54820000D02*
X65040000Y-54820000D01*
X62290000Y-54820000D02*
X63021000Y-54820000D01*
X59920000Y-54820000D02*
X60130000Y-54820000D01*
X67660000Y-54820000D02*
X67660000Y-56940000D01*
X72660000Y-54820000D02*
X72660000Y-56940000D01*
X67540000Y-54820000D02*
X67540000Y-56940000D01*
X72100000Y-56940000D02*
X72660000Y-56940000D01*
X69910000Y-56940000D02*
X70641000Y-56940000D01*
X67540000Y-56940000D02*
X67750000Y-56940000D01*
X72100000Y-54820000D02*
X72660000Y-54820000D01*
X69910000Y-54820000D02*
X70641000Y-54820000D01*
X67540000Y-54820000D02*
X67750000Y-54820000D01*
X49990000Y-54510000D02*
X52110000Y-54510000D01*
X49990000Y-49510000D02*
X52110000Y-49510000D01*
X49990000Y-54630000D02*
X52110000Y-54630000D01*
X52110000Y-50070000D02*
X52110000Y-49510000D01*
X52110000Y-52260000D02*
X52110000Y-51529000D01*
X52110000Y-54630000D02*
X52110000Y-54420000D01*
X49990000Y-50070000D02*
X49990000Y-49510000D01*
X49990000Y-52260000D02*
X49990000Y-51529000D01*
X49990000Y-54630000D02*
X49990000Y-54420000D01*
X57610000Y-54510000D02*
X59730000Y-54510000D01*
X57610000Y-49510000D02*
X59730000Y-49510000D01*
X57610000Y-54630000D02*
X59730000Y-54630000D01*
X59730000Y-50070000D02*
X59730000Y-49510000D01*
X59730000Y-52260000D02*
X59730000Y-51529000D01*
X59730000Y-54630000D02*
X59730000Y-54420000D01*
X57610000Y-50070000D02*
X57610000Y-49510000D01*
X57610000Y-52260000D02*
X57610000Y-51529000D01*
X57610000Y-54630000D02*
X57610000Y-54420000D01*
X65230000Y-54510000D02*
X67350000Y-54510000D01*
X65230000Y-49510000D02*
X67350000Y-49510000D01*
X65230000Y-54630000D02*
X67350000Y-54630000D01*
X67350000Y-50070000D02*
X67350000Y-49510000D01*
X67350000Y-52260000D02*
X67350000Y-51529000D01*
X67350000Y-54630000D02*
X67350000Y-54420000D01*
X65230000Y-50070000D02*
X65230000Y-49510000D01*
X65230000Y-52260000D02*
X65230000Y-51529000D01*
X65230000Y-54630000D02*
X65230000Y-54420000D01*
X72850000Y-54510000D02*
X74970000Y-54510000D01*
X72850000Y-49510000D02*
X74970000Y-49510000D01*
X72850000Y-54630000D02*
X74970000Y-54630000D01*
X74970000Y-50070000D02*
X74970000Y-49510000D01*
X74970000Y-52260000D02*
X74970000Y-51529000D01*
X74970000Y-54630000D02*
X74970000Y-54420000D01*
X72850000Y-50070000D02*
X72850000Y-49510000D01*
X72850000Y-52260000D02*
X72850000Y-51529000D01*
X72850000Y-54630000D02*
X72850000Y-54420000D01*
X52420000Y-47200000D02*
X52420000Y-49320000D01*
X57420000Y-47200000D02*
X57420000Y-49320000D01*
X52300000Y-47200000D02*
X52300000Y-49320000D01*
X56860000Y-49320000D02*
X57420000Y-49320000D01*
X54670000Y-49320000D02*
X55401000Y-49320000D01*
X52300000Y-49320000D02*
X52510000Y-49320000D01*
X56860000Y-47200000D02*
X57420000Y-47200000D01*
X54670000Y-47200000D02*
X55401000Y-47200000D01*
X52300000Y-47200000D02*
X52510000Y-47200000D01*
X60040000Y-47200000D02*
X60040000Y-49320000D01*
X65040000Y-47200000D02*
X65040000Y-49320000D01*
X59920000Y-47200000D02*
X59920000Y-49320000D01*
X64480000Y-49320000D02*
X65040000Y-49320000D01*
X62290000Y-49320000D02*
X63021000Y-49320000D01*
X59920000Y-49320000D02*
X60130000Y-49320000D01*
X64480000Y-47200000D02*
X65040000Y-47200000D01*
X62290000Y-47200000D02*
X63021000Y-47200000D01*
X59920000Y-47200000D02*
X60130000Y-47200000D01*
X67660000Y-47200000D02*
X67660000Y-49320000D01*
X72660000Y-47200000D02*
X72660000Y-49320000D01*
X67540000Y-47200000D02*
X67540000Y-49320000D01*
X72100000Y-49320000D02*
X72660000Y-49320000D01*
X69910000Y-49320000D02*
X70641000Y-49320000D01*
X67540000Y-49320000D02*
X67750000Y-49320000D01*
X72100000Y-47200000D02*
X72660000Y-47200000D01*
X69910000Y-47200000D02*
X70641000Y-47200000D01*
X67540000Y-47200000D02*
X67750000Y-47200000D01*
X49990000Y-46890000D02*
X52110000Y-46890000D01*
X49990000Y-41890000D02*
X52110000Y-41890000D01*
X49990000Y-47010000D02*
X52110000Y-47010000D01*
X52110000Y-42450000D02*
X52110000Y-41890000D01*
X52110000Y-44640000D02*
X52110000Y-43909000D01*
X52110000Y-47010000D02*
X52110000Y-46800000D01*
X49990000Y-42450000D02*
X49990000Y-41890000D01*
X49990000Y-44640000D02*
X49990000Y-43909000D01*
X49990000Y-47010000D02*
X49990000Y-46800000D01*
X57610000Y-46890000D02*
X59730000Y-46890000D01*
X57610000Y-41890000D02*
X59730000Y-41890000D01*
X57610000Y-47010000D02*
X59730000Y-47010000D01*
X59730000Y-42450000D02*
X59730000Y-41890000D01*
X59730000Y-44640000D02*
X59730000Y-43909000D01*
X59730000Y-47010000D02*
X59730000Y-46800000D01*
X57610000Y-42450000D02*
X57610000Y-41890000D01*
X57610000Y-44640000D02*
X57610000Y-43909000D01*
X57610000Y-47010000D02*
X57610000Y-46800000D01*
X65230000Y-46890000D02*
X67350000Y-46890000D01*
X65230000Y-41890000D02*
X67350000Y-41890000D01*
X65230000Y-47010000D02*
X67350000Y-47010000D01*
X67350000Y-42450000D02*
X67350000Y-41890000D01*
X67350000Y-44640000D02*
X67350000Y-43909000D01*
X67350000Y-47010000D02*
X67350000Y-46800000D01*
X65230000Y-42450000D02*
X65230000Y-41890000D01*
X65230000Y-44640000D02*
X65230000Y-43909000D01*
X65230000Y-47010000D02*
X65230000Y-46800000D01*
X72850000Y-46890000D02*
X74970000Y-46890000D01*
X72850000Y-41890000D02*
X74970000Y-41890000D01*
X72850000Y-47010000D02*
X74970000Y-47010000D01*
X74970000Y-42450000D02*
X74970000Y-41890000D01*
X74970000Y-44640000D02*
X74970000Y-43909000D01*
X74970000Y-47010000D02*
X74970000Y-46800000D01*
X72850000Y-42450000D02*
X72850000Y-41890000D01*
X72850000Y-44640000D02*
X72850000Y-43909000D01*
X72850000Y-47010000D02*
X72850000Y-46800000D01*
X52420000Y-39580000D02*
X52420000Y-41700000D01*
X57420000Y-39580000D02*
X57420000Y-41700000D01*
X52300000Y-39580000D02*
X52300000Y-41700000D01*
X56860000Y-41700000D02*
X57420000Y-41700000D01*
X54670000Y-41700000D02*
X55401000Y-41700000D01*
X52300000Y-41700000D02*
X52510000Y-41700000D01*
X56860000Y-39580000D02*
X57420000Y-39580000D01*
X54670000Y-39580000D02*
X55401000Y-39580000D01*
X52300000Y-39580000D02*
X52510000Y-39580000D01*
X60040000Y-39580000D02*
X60040000Y-41700000D01*
X65040000Y-39580000D02*
X65040000Y-41700000D01*
X59920000Y-39580000D02*
X59920000Y-41700000D01*
X64480000Y-41700000D02*
X65040000Y-41700000D01*
X62290000Y-41700000D02*
X63021000Y-41700000D01*
X59920000Y-41700000D02*
X60130000Y-41700000D01*
X64480000Y-39580000D02*
X65040000Y-39580000D01*
X62290000Y-39580000D02*
X63021000Y-39580000D01*
X59920000Y-39580000D02*
X60130000Y-39580000D01*
X67660000Y-39580000D02*
X67660000Y-41700000D01*
X72660000Y-39580000D02*
X72660000Y-41700000D01*
X67540000Y-39580000D02*
X67540000Y-41700000D01*
X72100000Y-41700000D02*
X72660000Y-41700000D01*
X69910000Y-41700000D02*
X70641000Y-41700000D01*
X67540000Y-41700000D02*
X67750000Y-41700000D01*
X72100000Y-39580000D02*
X72660000Y-39580000D01*
X69910000Y-39580000D02*
X70641000Y-39580000D01*
X67540000Y-39580000D02*
X67750000Y-39580000D01*
X49990000Y-39270000D02*
X52110000Y-39270000D01*
X49990000Y-34270000D02*
X52110000Y-34270000D01*
X49990000Y-39390000D02*
X52110000Y-39390000D01*
X52110000Y-34830000D02*
X52110000Y-34270000D01*
X52110000Y-37020000D02*
X52110000Y-36289000D01*
X52110000Y-39390000D02*
X52110000Y-39180000D01*
X49990000Y-34830000D02*
X49990000Y-34270000D01*
X49990000Y-37020000D02*
X49990000Y-36289000D01*
X49990000Y-39390000D02*
X49990000Y-39180000D01*
X57610000Y-39270000D02*
X59730000Y-39270000D01*
X57610000Y-34270000D02*
X59730000Y-34270000D01*
X57610000Y-39390000D02*
X59730000Y-39390000D01*
X59730000Y-34830000D02*
X59730000Y-34270000D01*
X59730000Y-37020000D02*
X59730000Y-36289000D01*
X59730000Y-39390000D02*
X59730000Y-39180000D01*
X57610000Y-34830000D02*
X57610000Y-34270000D01*
X57610000Y-37020000D02*
X57610000Y-36289000D01*
X57610000Y-39390000D02*
X57610000Y-39180000D01*
X65230000Y-39270000D02*
X67350000Y-39270000D01*
X65230000Y-34270000D02*
X67350000Y-34270000D01*
X65230000Y-39390000D02*
X67350000Y-39390000D01*
X67350000Y-34830000D02*
X67350000Y-34270000D01*
X67350000Y-37020000D02*
X67350000Y-36289000D01*
X67350000Y-39390000D02*
X67350000Y-39180000D01*
X65230000Y-34830000D02*
X65230000Y-34270000D01*
X65230000Y-37020000D02*
X65230000Y-36289000D01*
X65230000Y-39390000D02*
X65230000Y-39180000D01*
X72850000Y-39270000D02*
X74970000Y-39270000D01*
X72850000Y-34270000D02*
X74970000Y-34270000D01*
X72850000Y-39390000D02*
X74970000Y-39390000D01*
X74970000Y-34830000D02*
X74970000Y-34270000D01*
X74970000Y-37020000D02*
X74970000Y-36289000D01*
X74970000Y-39390000D02*
X74970000Y-39180000D01*
X72850000Y-34830000D02*
X72850000Y-34270000D01*
X72850000Y-37020000D02*
X72850000Y-36289000D01*
X72850000Y-39390000D02*
X72850000Y-39180000D01*
X52420000Y-31960000D02*
X52420000Y-34080000D01*
X57420000Y-31960000D02*
X57420000Y-34080000D01*
X52300000Y-31960000D02*
X52300000Y-34080000D01*
X56860000Y-34080000D02*
X57420000Y-34080000D01*
X54670000Y-34080000D02*
X55401000Y-34080000D01*
X52300000Y-34080000D02*
X52510000Y-34080000D01*
X56860000Y-31960000D02*
X57420000Y-31960000D01*
X54670000Y-31960000D02*
X55401000Y-31960000D01*
X52300000Y-31960000D02*
X52510000Y-31960000D01*
X60040000Y-31960000D02*
X60040000Y-34080000D01*
X65040000Y-31960000D02*
X65040000Y-34080000D01*
X59920000Y-31960000D02*
X59920000Y-34080000D01*
X64480000Y-34080000D02*
X65040000Y-34080000D01*
X62290000Y-34080000D02*
X63021000Y-34080000D01*
X59920000Y-34080000D02*
X60130000Y-34080000D01*
X64480000Y-31960000D02*
X65040000Y-31960000D01*
X62290000Y-31960000D02*
X63021000Y-31960000D01*
X59920000Y-31960000D02*
X60130000Y-31960000D01*
X67660000Y-31960000D02*
X67660000Y-34080000D01*
X72660000Y-31960000D02*
X72660000Y-34080000D01*
X67540000Y-31960000D02*
X67540000Y-34080000D01*
X72100000Y-34080000D02*
X72660000Y-34080000D01*
X69910000Y-34080000D02*
X70641000Y-34080000D01*
X67540000Y-34080000D02*
X67750000Y-34080000D01*
X72100000Y-31960000D02*
X72660000Y-31960000D01*
X69910000Y-31960000D02*
X70641000Y-31960000D01*
X67540000Y-31960000D02*
X67750000Y-31960000D01*
X49990000Y-31650000D02*
X52110000Y-31650000D01*
X49990000Y-26650000D02*
X52110000Y-26650000D01*
X49990000Y-31770000D02*
X52110000Y-31770000D01*
X52110000Y-27210000D02*
X52110000Y-26650000D01*
X52110000Y-29400000D02*
X52110000Y-28669000D01*
X52110000Y-31770000D02*
X52110000Y-31560000D01*
X49990000Y-27210000D02*
X49990000Y-26650000D01*
X49990000Y-29400000D02*
X49990000Y-28669000D01*
X49990000Y-31770000D02*
X49990000Y-31560000D01*
X57610000Y-31650000D02*
X59730000Y-31650000D01*
X57610000Y-26650000D02*
X59730000Y-26650000D01*
X57610000Y-31770000D02*
X59730000Y-31770000D01*
X59730000Y-27210000D02*
X59730000Y-26650000D01*
X59730000Y-29400000D02*
X59730000Y-28669000D01*
X59730000Y-31770000D02*
X59730000Y-31560000D01*
X57610000Y-27210000D02*
X57610000Y-26650000D01*
X57610000Y-29400000D02*
X57610000Y-28669000D01*
X57610000Y-31770000D02*
X57610000Y-31560000D01*
X65230000Y-31650000D02*
X67350000Y-31650000D01*
X65230000Y-26650000D02*
X67350000Y-26650000D01*
X65230000Y-31770000D02*
X67350000Y-31770000D01*
X67350000Y-27210000D02*
X67350000Y-26650000D01*
X67350000Y-29400000D02*
X67350000Y-28669000D01*
X67350000Y-31770000D02*
X67350000Y-31560000D01*
X65230000Y-27210000D02*
X65230000Y-26650000D01*
X65230000Y-29400000D02*
X65230000Y-28669000D01*
X65230000Y-31770000D02*
X65230000Y-31560000D01*
X72850000Y-31650000D02*
X74970000Y-31650000D01*
X72850000Y-26650000D02*
X74970000Y-26650000D01*
X72850000Y-31770000D02*
X74970000Y-31770000D01*
X74970000Y-27210000D02*
X74970000Y-26650000D01*
X74970000Y-29400000D02*
X74970000Y-28669000D01*
X74970000Y-31770000D02*
X74970000Y-31560000D01*
X72850000Y-27210000D02*
X72850000Y-26650000D01*
X72850000Y-29400000D02*
X72850000Y-28669000D01*
X72850000Y-31770000D02*
X72850000Y-31560000D01*
X52420000Y-24340000D02*
X52420000Y-26460000D01*
X57420000Y-24340000D02*
X57420000Y-26460000D01*
X52300000Y-24340000D02*
X52300000Y-26460000D01*
X56860000Y-26460000D02*
X57420000Y-26460000D01*
X54670000Y-26460000D02*
X55401000Y-26460000D01*
X52300000Y-26460000D02*
X52510000Y-26460000D01*
X56860000Y-24340000D02*
X57420000Y-24340000D01*
X54670000Y-24340000D02*
X55401000Y-24340000D01*
X52300000Y-24340000D02*
X52510000Y-24340000D01*
X60040000Y-24340000D02*
X60040000Y-26460000D01*
X65040000Y-24340000D02*
X65040000Y-26460000D01*
X59920000Y-24340000D02*
X59920000Y-26460000D01*
X64480000Y-26460000D02*
X65040000Y-26460000D01*
X62290000Y-26460000D02*
X63021000Y-26460000D01*
X59920000Y-26460000D02*
X60130000Y-26460000D01*
X64480000Y-24340000D02*
X65040000Y-24340000D01*
X62290000Y-24340000D02*
X63021000Y-24340000D01*
X59920000Y-24340000D02*
X60130000Y-24340000D01*
X67660000Y-24340000D02*
X67660000Y-26460000D01*
X72660000Y-24340000D02*
X72660000Y-26460000D01*
X67540000Y-24340000D02*
X67540000Y-26460000D01*
X72100000Y-26460000D02*
X72660000Y-26460000D01*
X69910000Y-26460000D02*
X70641000Y-26460000D01*
X67540000Y-26460000D02*
X67750000Y-26460000D01*
X72100000Y-24340000D02*
X72660000Y-24340000D01*
X69910000Y-24340000D02*
X70641000Y-24340000D01*
X67540000Y-24340000D02*
X67750000Y-24340000D01*
D11*
X60349047Y-119197380D02*
X60349047Y-118197380D01*
X60587142Y-118197380D01*
X60730000Y-118245000D01*
X60825238Y-118340238D01*
X60872857Y-118435476D01*
X60920476Y-118625952D01*
X60920476Y-118768809D01*
X60872857Y-118959285D01*
X60825238Y-119054523D01*
X60730000Y-119149761D01*
X60587142Y-119197380D01*
X60349047Y-119197380D01*
X61539523Y-118197380D02*
X61730000Y-118197380D01*
X61825238Y-118245000D01*
X61920476Y-118340238D01*
X61968095Y-118530714D01*
X61968095Y-118864047D01*
X61920476Y-119054523D01*
X61825238Y-119149761D01*
X61730000Y-119197380D01*
X61539523Y-119197380D01*
X61444285Y-119149761D01*
X61349047Y-119054523D01*
X61301428Y-118864047D01*
X61301428Y-118530714D01*
X61349047Y-118340238D01*
X61444285Y-118245000D01*
X61539523Y-118197380D01*
X62301428Y-118197380D02*
X62539523Y-119197380D01*
X62730000Y-118483095D01*
X62920476Y-119197380D01*
X63158571Y-118197380D01*
X63539523Y-119197380D02*
X63539523Y-118197380D01*
X64110952Y-119197380D01*
X64110952Y-118197380D01*
X72961666Y-107132380D02*
X72628333Y-106656190D01*
X72390238Y-107132380D02*
X72390238Y-106132380D01*
X72771190Y-106132380D01*
X72866428Y-106180000D01*
X72914047Y-106227619D01*
X72961666Y-106322857D01*
X72961666Y-106465714D01*
X72914047Y-106560952D01*
X72866428Y-106608571D01*
X72771190Y-106656190D01*
X72390238Y-106656190D01*
X73390238Y-107132380D02*
X73390238Y-106132380D01*
X74390238Y-106180000D02*
X74295000Y-106132380D01*
X74152142Y-106132380D01*
X74009285Y-106180000D01*
X73914047Y-106275238D01*
X73866428Y-106370476D01*
X73818809Y-106560952D01*
X73818809Y-106703809D01*
X73866428Y-106894285D01*
X73914047Y-106989523D01*
X74009285Y-107084761D01*
X74152142Y-107132380D01*
X74247380Y-107132380D01*
X74390238Y-107084761D01*
X74437857Y-107037142D01*
X74437857Y-106703809D01*
X74247380Y-106703809D01*
X74866428Y-107132380D02*
X74866428Y-106132380D01*
X74866428Y-106608571D02*
X75437857Y-106608571D01*
X75437857Y-107132380D02*
X75437857Y-106132380D01*
X75771190Y-106132380D02*
X76342619Y-106132380D01*
X76056904Y-107132380D02*
X76056904Y-106132380D01*
X49117619Y-107132380D02*
X48641428Y-107132380D01*
X48641428Y-106132380D01*
X49450952Y-106608571D02*
X49784285Y-106608571D01*
X49927142Y-107132380D02*
X49450952Y-107132380D01*
X49450952Y-106132380D01*
X49927142Y-106132380D01*
X50689047Y-106608571D02*
X50355714Y-106608571D01*
X50355714Y-107132380D02*
X50355714Y-106132380D01*
X50831904Y-106132380D01*
X51070000Y-106132380D02*
X51641428Y-106132380D01*
X51355714Y-107132380D02*
X51355714Y-106132380D01*
X61444285Y-94067380D02*
X61444285Y-94876904D01*
X61491904Y-94972142D01*
X61539523Y-95019761D01*
X61634761Y-95067380D01*
X61825238Y-95067380D01*
X61920476Y-95019761D01*
X61968095Y-94972142D01*
X62015714Y-94876904D01*
X62015714Y-94067380D01*
X62491904Y-95067380D02*
X62491904Y-94067380D01*
X62872857Y-94067380D01*
X62968095Y-94115000D01*
X63015714Y-94162619D01*
X63063333Y-94257857D01*
X63063333Y-94400714D01*
X63015714Y-94495952D01*
X62968095Y-94543571D01*
X62872857Y-94591190D01*
X62491904Y-94591190D01*
X47193571Y-95100714D02*
X47365000Y-95157857D01*
X47650714Y-95157857D01*
X47765000Y-95100714D01*
X47822142Y-95043571D01*
X47879285Y-94929285D01*
X47879285Y-94815000D01*
X47822142Y-94700714D01*
X47765000Y-94643571D01*
X47650714Y-94586428D01*
X47422142Y-94529285D01*
X47307857Y-94472142D01*
X47250714Y-94415000D01*
X47193571Y-94300714D01*
X47193571Y-94186428D01*
X47250714Y-94072142D01*
X47307857Y-94015000D01*
X47422142Y-93957857D01*
X47707857Y-93957857D01*
X47879285Y-94015000D01*
X48393571Y-94529285D02*
X48793571Y-94529285D01*
X48965000Y-95157857D02*
X48393571Y-95157857D01*
X48393571Y-93957857D01*
X48965000Y-93957857D01*
X50050714Y-95157857D02*
X49479285Y-95157857D01*
X49479285Y-93957857D01*
X50450714Y-94529285D02*
X50850714Y-94529285D01*
X51022142Y-95157857D02*
X50450714Y-95157857D01*
X50450714Y-93957857D01*
X51022142Y-93957857D01*
X52222142Y-95043571D02*
X52165000Y-95100714D01*
X51993571Y-95157857D01*
X51879285Y-95157857D01*
X51707857Y-95100714D01*
X51593571Y-94986428D01*
X51536428Y-94872142D01*
X51479285Y-94643571D01*
X51479285Y-94472142D01*
X51536428Y-94243571D01*
X51593571Y-94129285D01*
X51707857Y-94015000D01*
X51879285Y-93957857D01*
X51993571Y-93957857D01*
X52165000Y-94015000D01*
X52222142Y-94072142D01*
X52565000Y-93957857D02*
X53250714Y-93957857D01*
X52907857Y-95157857D02*
X52907857Y-93957857D01*
X71923571Y-95100714D02*
X72095000Y-95157857D01*
X72380714Y-95157857D01*
X72495000Y-95100714D01*
X72552142Y-95043571D01*
X72609285Y-94929285D01*
X72609285Y-94815000D01*
X72552142Y-94700714D01*
X72495000Y-94643571D01*
X72380714Y-94586428D01*
X72152142Y-94529285D01*
X72037857Y-94472142D01*
X71980714Y-94415000D01*
X71923571Y-94300714D01*
X71923571Y-94186428D01*
X71980714Y-94072142D01*
X72037857Y-94015000D01*
X72152142Y-93957857D01*
X72437857Y-93957857D01*
X72609285Y-94015000D01*
X72952142Y-93957857D02*
X73637857Y-93957857D01*
X73295000Y-95157857D02*
X73295000Y-93957857D01*
X73980714Y-94815000D02*
X74552142Y-94815000D01*
X73866428Y-95157857D02*
X74266428Y-93957857D01*
X74666428Y-95157857D01*
X75752142Y-95157857D02*
X75352142Y-94586428D01*
X75066428Y-95157857D02*
X75066428Y-93957857D01*
X75523571Y-93957857D01*
X75637857Y-94015000D01*
X75695000Y-94072142D01*
X75752142Y-94186428D01*
X75752142Y-94357857D01*
X75695000Y-94472142D01*
X75637857Y-94529285D01*
X75523571Y-94586428D01*
X75066428Y-94586428D01*
X76095000Y-93957857D02*
X76780714Y-93957857D01*
X76437857Y-95157857D02*
X76437857Y-93957857D01*
M02*
