M48
; DRILL file {KiCad (5.1.4)-1} date 2019-10-27 21:57:26
; FORMAT={-:-/ absolute / inch / decimal}
; #@! TF.CreationDate,2019-10-27T21:57:26-04:00
; #@! TF.GenerationSoftware,Kicad,Pcbnew,(5.1.4)-1
; #@! TF.FileFunction,Plated,1,2,PTH
FMAT,2
INCH
T1C0.0118
T2C0.0157
T3C0.0315
T4C0.0354
T5C0.0394
T6C0.0433
T7C0.0591
T8C0.0984
%
G90
G05
T1
X2.3498Y-3.0252
X2.375Y-2.82
X2.4Y-2.67
X2.41Y-2.82
X2.4607Y-2.83
X2.47Y-2.68
X2.48Y-3.01
X2.515Y-2.82
X2.53Y-2.86
X2.5346Y-2.9396
X2.73Y-2.77
X2.89Y-3.34
T2
X2.135Y-2.825
X2.72Y-2.92
X2.785Y-3.14
X2.94Y-2.87
X3.15Y-3.05
T3
X1.8Y-2.845
X1.8Y-3.0371
T4
X2.7098Y-1.15
X2.8098Y-1.15
X2.4098Y-1.3
X2.5098Y-1.3
X2.9098Y-1.1
X2.9098Y-1.2
X2.1098Y-1.0
X2.2098Y-1.0
X2.0098Y-2.3
X2.0098Y-2.4
X2.1098Y-2.35
X2.2098Y-2.35
X2.7098Y-1.3
X2.8098Y-1.3
X2.4098Y-2.05
X2.5098Y-2.05
X2.0098Y-1.1
X2.0098Y-1.2
X2.3098Y-2.3
X2.3098Y-2.4
X2.1098Y-1.75
X2.2098Y-1.75
X2.6098Y-1.7
X2.6098Y-1.8
X2.7098Y-1.6
X2.8098Y-1.6
X2.0098Y-1.4
X2.0098Y-1.5
X2.9098Y-2.0
X2.9098Y-2.1
X2.9098Y-2.3
X2.9098Y-2.4
X2.7098Y-2.5
X2.8098Y-2.5
X2.0098Y-1.7
X2.0098Y-1.8
X2.9098Y-1.4
X2.9098Y-1.5
X2.9098Y-1.7
X2.9098Y-1.8
X2.3098Y-1.1
X2.3098Y-1.2
X2.6098Y-2.3
X2.6098Y-2.4
X2.4098Y-1.0
X2.5098Y-1.0
X2.4098Y-2.5
X2.5098Y-2.5
X2.4098Y-2.35
X2.5098Y-2.35
X2.7098Y-2.05
X2.8098Y-2.05
X2.1098Y-1.15
X2.2098Y-1.15
X2.4098Y-1.75
X2.5098Y-1.75
X2.4098Y-2.2
X2.5098Y-2.2
X2.1098Y-1.45
X2.2098Y-1.45
X2.7098Y-1.45
X2.8098Y-1.45
X2.4098Y-1.9
X2.5098Y-1.9
X2.1098Y-1.6
X2.2098Y-1.6
X2.4098Y-1.15
X2.5098Y-1.15
X2.3098Y-1.4
X2.3098Y-1.5
X2.7098Y-1.9
X2.8098Y-1.9
X2.1098Y-1.3
X2.2098Y-1.3
X2.3098Y-2.0
X2.3098Y-2.1
X2.6098Y-1.1
X2.6098Y-1.2
X2.4098Y-1.6
X2.5098Y-1.6
X2.7098Y-1.0
X2.8098Y-1.0
X2.1098Y-2.5
X2.2098Y-2.5
X2.1098Y-2.05
X2.2098Y-2.05
X2.7098Y-2.35
X2.8098Y-2.35
X2.1098Y-2.2
X2.2098Y-2.2
X2.7098Y-1.75
X2.8098Y-1.75
X2.0098Y-2.0
X2.0098Y-2.1
X2.3098Y-1.7
X2.3098Y-1.8
X2.6098Y-2.0
X2.6098Y-2.1
X2.7098Y-2.2
X2.8098Y-2.2
X3.35Y-1.4175
X3.35Y-1.4963
X3.35Y-1.575
X2.4098Y-1.45
X2.5098Y-1.45
X2.1098Y-1.9
X2.2098Y-1.9
X2.6098Y-1.4
X2.6098Y-1.5
T5
X1.6557Y-2.0
X1.6557Y-2.1
X3.2643Y-2.0
X3.2643Y-2.1
T6
X1.8463Y-3.9
X1.8463Y-4.0772
X2.1022Y-3.9
X2.1022Y-4.0772
X2.8037Y-3.9
X2.8037Y-4.0772
X3.0596Y-3.9
X3.0596Y-4.0772
X2.325Y-4.3787
X2.325Y-4.5559
X2.5809Y-4.3787
X2.5809Y-4.5559
X1.8463Y-3.4213
X1.8463Y-3.5984
X2.1022Y-3.4213
X2.1022Y-3.5984
X2.8037Y-3.4213
X2.8037Y-3.5984
X3.0596Y-3.4213
X3.0596Y-3.5984
X2.325Y-3.4213
X2.325Y-3.5984
X2.5809Y-3.4213
X2.5809Y-3.5984
T7
X3.35Y-1.3348
X3.35Y-1.6577
T8
X3.2474Y-1.0283
X1.6726Y-4.5717
X1.6726Y-1.0283
X3.2474Y-4.5717
T0
M30
